<svg width="432" height="864" viewBox="0 0 432 864" fill="none" xmlns="http://www.w3.org/2000/svg">
<rect x="22.5" y="22.5" width="387" height="819" fill="#ECB980" stroke="#412034" stroke-width="45"/>
<rect x="45" y="744" width="92" height="58" fill="#EB593E"/>
<rect x="154" y="744" width="125" height="58" fill="#EB593E"/>
<rect x="295" y="744" width="92" height="58" fill="#EB593E"/>
<rect x="45" y="669" width="25" height="58" fill="#EB593E"/>
<rect x="370" y="669" width="17" height="58" fill="#EB593E"/>
<rect x="87" y="669" width="125" height="58" fill="#EB593E"/>
<rect x="228" y="669" width="125" height="58" fill="#EB593E"/>
<rect x="45" y="594" width="92" height="58" fill="#EB593E"/>
<rect x="154" y="594" width="125" height="58" fill="#EB593E"/>
<rect x="295" y="594" width="92" height="58" fill="#EB593E"/>
<rect x="45" y="519" width="25" height="58" fill="#EB593E"/>
<rect x="370" y="519" width="17" height="58" fill="#EB593E"/>
<rect x="87" y="519" width="125" height="58" fill="#EB593E"/>
<rect x="228" y="519" width="125" height="58" fill="#EB593E"/>
<rect x="45" y="444" width="92" height="58" fill="#EB593E"/>
<rect x="154" y="444" width="125" height="58" fill="#EB593E"/>
<rect x="295" y="444" width="92" height="58" fill="#EB593E"/>
<rect x="45" y="369" width="25" height="58" fill="#EB593E"/>
<rect x="370" y="369" width="17" height="58" fill="#EB593E"/>
<rect x="87" y="369" width="125" height="58" fill="#EB593E"/>
<rect x="228" y="369" width="125" height="58" fill="#EB593E"/>
<rect x="45" y="294" width="92" height="58" fill="#EB593E"/>
<rect x="154" y="294" width="125" height="58" fill="#EB593E"/>
<rect x="295" y="294" width="92" height="58" fill="#EB593E"/>
<rect x="45" y="219" width="25" height="58" fill="#EB593E"/>
<rect x="370" y="219" width="17" height="58" fill="#EB593E"/>
<rect x="87" y="219" width="125" height="58" fill="#EB593E"/>
<rect x="228" y="219" width="125" height="58" fill="#EB593E"/>
<rect x="45" y="144" width="92" height="58" fill="#EB593E"/>
<rect x="154" y="144" width="125" height="58" fill="#EB593E"/>
<rect x="295" y="144" width="92" height="58" fill="#EB593E"/>
<rect x="45" y="69" width="25" height="58" fill="#EB593E"/>
<rect x="370" y="69" width="17" height="58" fill="#EB593E"/>
<rect x="87" y="69" width="125" height="58" fill="#EB593E"/>
<rect x="228" y="69" width="125" height="58" fill="#EB593E"/>
<rect x="45" y="45" width="92" height="7" fill="#EB593E"/>
<rect x="154" y="45" width="125" height="7" fill="#EB593E"/>
<rect x="295" y="45" width="92" height="7" fill="#EB593E"/>
</svg>
