<svg width="432" height="432" viewBox="0 0 432 432" fill="none" xmlns="http://www.w3.org/2000/svg">
<rect x="22.5" y="22.5" width="387" height="387" fill="#ECB980" stroke="#412034" stroke-width="45"/>
<rect x="45" y="312" width="92" height="58" fill="#EB593E"/>
<rect x="154" y="312" width="125" height="58" fill="#EB593E"/>
<rect x="295" y="312" width="92" height="58" fill="#EB593E"/>
<rect x="45" y="237" width="25" height="58" fill="#EB593E"/>
<rect x="370" y="237" width="17" height="58" fill="#EB593E"/>
<rect x="87" y="237" width="125" height="58" fill="#EB593E"/>
<rect x="228" y="237" width="125" height="58" fill="#EB593E"/>
<rect x="45" y="162" width="92" height="58" fill="#EB593E"/>
<rect x="154" y="162" width="125" height="58" fill="#EB593E"/>
<rect x="295" y="162" width="92" height="58" fill="#EB593E"/>
<rect x="45" y="87" width="25" height="58" fill="#EB593E"/>
<rect x="370" y="87" width="17" height="58" fill="#EB593E"/>
<rect x="87" y="87" width="125" height="58" fill="#EB593E"/>
<rect x="228" y="87" width="125" height="58" fill="#EB593E"/>
<rect x="45" y="45" width="92" height="25" fill="#EB593E"/>
<rect x="154" y="45" width="125" height="25" fill="#EB593E"/>
<rect x="295" y="45" width="92" height="25" fill="#EB593E"/>
</svg>
