<svg xmlns="http://www.w3.org/2000/svg" xmlns:xlink="http://www.w3.org/1999/xlink" width="1920" zoomAndPan="magnify" viewBox="520 274 399 270" height="1080" preserveAspectRatio="xMidYMid meet" version="1.2"><defs><clipPath id="8bc7d99efe"><path d="M 520 274 L 919 274 L 919 544.003906 L 520 544.003906 Z M 520 274 "/></clipPath><clipPath id="ff6e72e607"><path d="M 731.15625 280.445312 L 916.132812 528.375 C 918.34375 531.339844 918.695312 535.300781 917.035156 538.609375 C 915.375 541.914062 911.992188 544.003906 908.292969 544.003906 L 530.695312 544.003906 C 526.996094 544.003906 523.613281 541.914062 521.953125 538.609375 C 520.292969 535.300781 520.644531 531.339844 522.855469 528.375 L 707.832031 280.445312 C 710.578125 276.765625 714.902344 274.597656 719.492188 274.597656 C 724.085938 274.597656 728.410156 276.765625 731.15625 280.445312 Z M 731.15625 280.445312 "/></clipPath><clipPath id="1f9fec7a93"><path d="M 575.496094 318.484375 L 864.441406 318.484375 L 864.441406 511.117188 L 575.496094 511.117188 Z M 575.496094 318.484375 "/></clipPath><clipPath id="862129322e"><path d="M 719.800781 318.484375 L 864.109375 511.117188 L 575.496094 511.117188 Z M 719.800781 318.484375 "/></clipPath></defs><g id="800069cebc"><g clip-rule="nonzero" clip-path="url(#8bc7d99efe)"><g clip-rule="nonzero" clip-path="url(#ff6e72e607)"><path style=" stroke:none;fill-rule:nonzero;fill:#432235;fill-opacity:1;" d="M 511.195312 264.816406 L 927.796875 264.816406 L 927.796875 544.003906 L 511.195312 544.003906 Z M 511.195312 264.816406 "/></g></g><g clip-rule="nonzero" clip-path="url(#1f9fec7a93)"><g clip-rule="nonzero" clip-path="url(#862129322e)"><path style=" stroke:none;fill-rule:nonzero;fill:#eb593e;fill-opacity:1;" d="M 575.496094 318.484375 L 864.441406 318.484375 L 864.441406 511.117188 L 575.496094 511.117188 Z M 575.496094 318.484375 "/></g></g></g></svg>