<svg width="864" height="432" viewBox="0 0 864 432" fill="none" xmlns="http://www.w3.org/2000/svg">
<line x1="1.96701e-06" y1="22.5" x2="864" y2="22.5001" stroke="#412034" stroke-width="45"/>
<line x1="841.5" y1="-4.91753e-07" x2="841.5" y2="432" stroke="#412034" stroke-width="45"/>
<line x1="22.5" y1="-9.83506e-07" x2="22.5" y2="432" stroke="#412034" stroke-width="45"/>
<line x1="1.96701e-06" y1="409.5" x2="238" y2="409.5" stroke="#412034" stroke-width="45"/>
<line x1="628" y1="409.5" x2="864" y2="409.5" stroke="#412034" stroke-width="45"/>
<path d="M45 45H239V387H45V45Z" fill="#DF583B"/>
<rect x="623" y="45" width="196" height="342" fill="#DF583B"/>
<rect x="238" y="45" width="386" height="197" fill="#DF583B"/>
<path d="M625.71 238.979L625.359 292.427L572.263 239.33L625.71 238.979Z" fill="#DF583B"/>
<path d="M237.655 240.655L291.103 241.006L238.006 294.103L237.655 240.655Z" fill="#DF583B"/>
<mask id="path-11-inside-1_0_1" fill="white">
<path d="M191 432C191 302.213 296.213 197 426 197H438C567.787 197 673 302.213 673 432V432H191V432Z"/>
</mask>
<path d="M146 432C146 277.36 271.36 152 426 152H438C592.64 152 718 277.36 718 432H628C628 327.066 542.934 242 438 242H426C321.066 242 236 327.066 236 432H146ZM673 432H191H673ZM146 432C146 277.36 271.36 152 426 152V242C321.066 242 236 327.066 236 432H146ZM438 152C592.64 152 718 277.36 718 432H628C628 327.066 542.934 242 438 242V152Z" fill="#412034" mask="url(#path-11-inside-1_0_1)"/>
</svg>
