<svg xmlns="http://www.w3.org/2000/svg" xmlns:xlink="http://www.w3.org/1999/xlink" width="1920" zoomAndPan="magnify" viewBox="396.62 62.10 645.38 684.34" height="1080" preserveAspectRatio="xMidYMid meet" version="1.2"><defs><clipPath id="22fe52ad6a"><path d="M 396.621094 62.097656 L 1042 62.097656 L 1042 746.441406 L 396.621094 746.441406 Z M 396.621094 62.097656 "/></clipPath><clipPath id="303db0922c"><path d="M 459.453125 62.097656 L 979.367188 62.097656 C 996.03125 62.097656 1012.011719 68.71875 1023.792969 80.5 C 1035.578125 92.28125 1042.195312 108.265625 1042.195312 124.925781 L 1042.195312 683.613281 C 1042.195312 700.273438 1035.578125 716.253906 1023.792969 728.039062 C 1012.011719 739.820312 996.03125 746.441406 979.367188 746.441406 L 459.453125 746.441406 C 442.789062 746.441406 426.808594 739.820312 415.023438 728.039062 C 403.242188 716.253906 396.621094 700.273438 396.621094 683.613281 L 396.621094 124.925781 C 396.621094 108.265625 403.242188 92.28125 415.023438 80.5 C 426.808594 68.71875 442.789062 62.097656 459.453125 62.097656 Z M 459.453125 62.097656 "/></clipPath><clipPath id="68a7cb6ccc"><path d="M 461.386719 133.390625 L 977 133.390625 L 977 675.148438 L 461.386719 675.148438 Z M 461.386719 133.390625 "/></clipPath></defs><g id="500ba9a3e7"><g clip-rule="nonzero" clip-path="url(#22fe52ad6a)"><g clip-rule="nonzero" clip-path="url(#303db0922c)"><path style=" stroke:none;fill-rule:nonzero;fill:#432135;fill-opacity:1;" d="M 396.621094 62.097656 L 1041.484375 62.097656 L 1041.484375 746.441406 L 396.621094 746.441406 Z M 396.621094 62.097656 "/></g></g><g clip-rule="nonzero" clip-path="url(#68a7cb6ccc)"><path style=" stroke:none;fill-rule:nonzero;fill:#eb593e;fill-opacity:1;" d="M 461.386719 133.390625 L 976.8125 133.390625 L 976.8125 675.148438 L 461.386719 675.148438 Z M 461.386719 133.390625 "/></g></g></svg>