<svg width="432" height="864" viewBox="0 0 432 864" fill="none" xmlns="http://www.w3.org/2000/svg">
<rect x="22.5" y="22.5" width="387" height="819" fill="#ECB980" stroke="#412034" stroke-width="45"/>
<rect x="45" y="744" width="92" height="58" fill="#EB593E"/>
<rect x="154" y="744" width="125" height="58" fill="#EB593E"/>
<rect x="295" y="744" width="92" height="58" fill="#EB593E"/>
<rect x="45" y="669" width="25" height="58" fill="#EB593E"/>
<rect x="370" y="669" width="17" height="58" fill="#EB593E"/>
<rect x="87" y="669" width="125" height="58" fill="#EB593E"/>
<rect x="228" y="669" width="125" height="58" fill="#EB593E"/>
<rect x="45" y="594" width="92" height="58" fill="#EB593E"/>
<rect x="154" y="594" width="125" height="58" fill="#EB593E"/>
<rect x="295" y="594" width="92" height="58" fill="#EB593E"/>
<rect x="45" y="519" width="25" height="58" fill="#EB593E"/>
<rect x="370" y="519" width="17" height="58" fill="#EB593E"/>
<rect x="87" y="519" width="125" height="58" fill="#EB593E"/>
<rect x="228" y="519" width="125" height="58" fill="#EB593E"/>
<path d="M216 148C255.764 148 288 180.236 288 220V399H144V220C144 180.236 176.235 148 216 148Z" fill="#D3955E" stroke="#412034" stroke-width="30"/>
<rect x="201" y="137" width="30" height="257" fill="#412034"/>
<rect x="159" y="236" width="114" height="30" fill="#412034"/>
</svg>
