<svg width="432" height="1297" viewBox="0 0 432 1297" fill="none" xmlns="http://www.w3.org/2000/svg">
<rect x="22.5" y="22.5" width="387" height="1251" fill="#4D6097" stroke="#412034" stroke-width="45"/>
<mask id="path-2-inside-1_6_1007" fill="white">
<path d="M45 1157H97V1215H45V1157Z"/>
</mask>
<path d="M97 1157H122V1132H97V1157ZM45 1157V1182H97V1157V1132H45V1157ZM97 1157H72V1215H97H122V1157H97Z" fill="#2A3668" mask="url(#path-2-inside-1_6_1007)"/>
<mask id="path-4-inside-2_6_1007" fill="white">
<path d="M114 1157H239V1215H114V1157Z"/>
</mask>
<path d="M239 1157H264V1132H239V1157ZM114 1157V1182H239V1157V1132H114V1157ZM239 1157H214V1215H239H264V1157H239Z" fill="#2A3668" mask="url(#path-4-inside-2_6_1007)"/>
<mask id="path-6-inside-3_6_1007" fill="white">
<path d="M256 1157H381V1215H256V1157Z"/>
</mask>
<path d="M381 1157H406V1132H381V1157ZM256 1157V1182H381V1157V1132H256V1157ZM381 1157H356V1215H381H406V1157H381Z" fill="#2A3668" mask="url(#path-6-inside-3_6_1007)"/>
<mask id="path-8-inside-4_6_1007" fill="white">
<path d="M60 1081H185V1139H60V1081Z"/>
</mask>
<path d="M185 1081H210V1056H185V1081ZM60 1081V1106H185V1081V1056H60V1081ZM185 1081H160V1139H185H210V1081H185Z" fill="#2A3668" mask="url(#path-8-inside-4_6_1007)"/>
<mask id="path-10-inside-5_6_1007" fill="white">
<path d="M202 1081H327V1139H202V1081Z"/>
</mask>
<path d="M327 1081H352V1056H327V1081ZM202 1081V1106H327V1081V1056H202V1081ZM327 1081H302V1139H327H352V1081H327Z" fill="#2A3668" mask="url(#path-10-inside-5_6_1007)"/>
<mask id="path-12-inside-6_6_1007" fill="white">
<path d="M344 1081H387V1139H344V1081Z"/>
</mask>
<path d="M344 1081V1106H387V1081V1056H344V1081Z" fill="#2A3668" mask="url(#path-12-inside-6_6_1007)"/>
<mask id="path-14-inside-7_6_1007" fill="white">
<path d="M45 1005H97V1063H45V1005Z"/>
</mask>
<path d="M97 1005H122V980H97V1005ZM45 1005V1030H97V1005V980H45V1005ZM97 1005H72V1063H97H122V1005H97Z" fill="#2A3668" mask="url(#path-14-inside-7_6_1007)"/>
<mask id="path-16-inside-8_6_1007" fill="white">
<path d="M114 1005H239V1063H114V1005Z"/>
</mask>
<path d="M239 1005H264V980H239V1005ZM114 1005V1030H239V1005V980H114V1005ZM239 1005H214V1063H239H264V1005H239Z" fill="#2A3668" mask="url(#path-16-inside-8_6_1007)"/>
<mask id="path-18-inside-9_6_1007" fill="white">
<path d="M256 1005H381V1063H256V1005Z"/>
</mask>
<path d="M381 1005H406V980H381V1005ZM256 1005V1030H381V1005V980H256V1005ZM381 1005H356V1063H381H406V1005H381Z" fill="#2A3668" mask="url(#path-18-inside-9_6_1007)"/>
<mask id="path-20-inside-10_6_1007" fill="white">
<path d="M60 929H185V987H60V929Z"/>
</mask>
<path d="M185 929H210V904H185V929ZM60 929V954H185V929V904H60V929ZM185 929H160V987H185H210V929H185Z" fill="#2A3668" mask="url(#path-20-inside-10_6_1007)"/>
<mask id="path-22-inside-11_6_1007" fill="white">
<path d="M202 929H327V987H202V929Z"/>
</mask>
<path d="M327 929H352V904H327V929ZM202 929V954H327V929V904H202V929ZM327 929H302V987H327H352V929H327Z" fill="#2A3668" mask="url(#path-22-inside-11_6_1007)"/>
<mask id="path-24-inside-12_6_1007" fill="white">
<path d="M344 929H387V987H344V929Z"/>
</mask>
<path d="M344 929V954H387V929V904H344V929Z" fill="#2A3668" mask="url(#path-24-inside-12_6_1007)"/>
<mask id="path-26-inside-13_6_1007" fill="white">
<path d="M45 853H97V911H45V853Z"/>
</mask>
<path d="M97 853H122V828H97V853ZM45 853V878H97V853V828H45V853ZM97 853H72V911H97H122V853H97Z" fill="#2A3668" mask="url(#path-26-inside-13_6_1007)"/>
<mask id="path-28-inside-14_6_1007" fill="white">
<path d="M114 853H239V911H114V853Z"/>
</mask>
<path d="M239 853H264V828H239V853ZM114 853V878H239V853V828H114V853ZM239 853H214V911H239H264V853H239Z" fill="#2A3668" mask="url(#path-28-inside-14_6_1007)"/>
<mask id="path-30-inside-15_6_1007" fill="white">
<path d="M256 853H381V911H256V853Z"/>
</mask>
<path d="M381 853H406V828H381V853ZM256 853V878H381V853V828H256V853ZM381 853H356V911H381H406V853H381Z" fill="#2A3668" mask="url(#path-30-inside-15_6_1007)"/>
<mask id="path-32-inside-16_6_1007" fill="white">
<path d="M60 777H185V835H60V777Z"/>
</mask>
<path d="M185 777H210V752H185V777ZM60 777V802H185V777V752H60V777ZM185 777H160V835H185H210V777H185Z" fill="#2A3668" mask="url(#path-32-inside-16_6_1007)"/>
<mask id="path-34-inside-17_6_1007" fill="white">
<path d="M202 777H327V835H202V777Z"/>
</mask>
<path d="M327 777H352V752H327V777ZM202 777V802H327V777V752H202V777ZM327 777H302V835H327H352V777H327Z" fill="#2A3668" mask="url(#path-34-inside-17_6_1007)"/>
<mask id="path-36-inside-18_6_1007" fill="white">
<path d="M344 777H387V835H344V777Z"/>
</mask>
<path d="M344 777V802H387V777V752H344V777Z" fill="#2A3668" mask="url(#path-36-inside-18_6_1007)"/>
<mask id="path-38-inside-19_6_1007" fill="white">
<path d="M45 701H97V759H45V701Z"/>
</mask>
<path d="M97 701H122V676H97V701ZM45 701V726H97V701V676H45V701ZM97 701H72V759H97H122V701H97Z" fill="#2A3668" mask="url(#path-38-inside-19_6_1007)"/>
<mask id="path-40-inside-20_6_1007" fill="white">
<path d="M114 701H239V759H114V701Z"/>
</mask>
<path d="M239 701H264V676H239V701ZM114 701V726H239V701V676H114V701ZM239 701H214V759H239H264V701H239Z" fill="#2A3668" mask="url(#path-40-inside-20_6_1007)"/>
<mask id="path-42-inside-21_6_1007" fill="white">
<path d="M256 701H381V759H256V701Z"/>
</mask>
<path d="M381 701H406V676H381V701ZM256 701V726H381V701V676H256V701ZM381 701H356V759H381H406V701H381Z" fill="#2A3668" mask="url(#path-42-inside-21_6_1007)"/>
<mask id="path-44-inside-22_6_1007" fill="white">
<path d="M60 625H185V683H60V625Z"/>
</mask>
<path d="M185 625H210V600H185V625ZM60 625V650H185V625V600H60V625ZM185 625H160V683H185H210V625H185Z" fill="#2A3668" mask="url(#path-44-inside-22_6_1007)"/>
<mask id="path-46-inside-23_6_1007" fill="white">
<path d="M202 625H327V683H202V625Z"/>
</mask>
<path d="M327 625H352V600H327V625ZM202 625V650H327V625V600H202V625ZM327 625H302V683H327H352V625H327Z" fill="#2A3668" mask="url(#path-46-inside-23_6_1007)"/>
<mask id="path-48-inside-24_6_1007" fill="white">
<path d="M344 625H387V683H344V625Z"/>
</mask>
<path d="M344 625V650H387V625V600H344V625Z" fill="#2A3668" mask="url(#path-48-inside-24_6_1007)"/>
<mask id="path-50-inside-25_6_1007" fill="white">
<path d="M45 549H97V607H45V549Z"/>
</mask>
<path d="M97 549H122V524H97V549ZM45 549V574H97V549V524H45V549ZM97 549H72V607H97H122V549H97Z" fill="#2A3668" mask="url(#path-50-inside-25_6_1007)"/>
<mask id="path-52-inside-26_6_1007" fill="white">
<path d="M114 549H239V607H114V549Z"/>
</mask>
<path d="M239 549H264V524H239V549ZM114 549V574H239V549V524H114V549ZM239 549H214V607H239H264V549H239Z" fill="#2A3668" mask="url(#path-52-inside-26_6_1007)"/>
<mask id="path-54-inside-27_6_1007" fill="white">
<path d="M256 549H381V607H256V549Z"/>
</mask>
<path d="M381 549H406V524H381V549ZM256 549V574H381V549V524H256V549ZM381 549H356V607H381H406V549H381Z" fill="#2A3668" mask="url(#path-54-inside-27_6_1007)"/>
<mask id="path-56-inside-28_6_1007" fill="white">
<path d="M60 473H185V531H60V473Z"/>
</mask>
<path d="M185 473H210V448H185V473ZM60 473V498H185V473V448H60V473ZM185 473H160V531H185H210V473H185Z" fill="#2A3668" mask="url(#path-56-inside-28_6_1007)"/>
<mask id="path-58-inside-29_6_1007" fill="white">
<path d="M202 473H327V531H202V473Z"/>
</mask>
<path d="M327 473H352V448H327V473ZM202 473V498H327V473V448H202V473ZM327 473H302V531H327H352V473H327Z" fill="#2A3668" mask="url(#path-58-inside-29_6_1007)"/>
<mask id="path-60-inside-30_6_1007" fill="white">
<path d="M344 473H387V531H344V473Z"/>
</mask>
<path d="M344 473V498H387V473V448H344V473Z" fill="#2A3668" mask="url(#path-60-inside-30_6_1007)"/>
<mask id="path-62-inside-31_6_1007" fill="white">
<path d="M45 397H97V455H45V397Z"/>
</mask>
<path d="M97 397H122V372H97V397ZM45 397V422H97V397V372H45V397ZM97 397H72V455H97H122V397H97Z" fill="#2A3668" mask="url(#path-62-inside-31_6_1007)"/>
<mask id="path-64-inside-32_6_1007" fill="white">
<path d="M114 397H239V455H114V397Z"/>
</mask>
<path d="M239 397H264V372H239V397ZM114 397V422H239V397V372H114V397ZM239 397H214V455H239H264V397H239Z" fill="#2A3668" mask="url(#path-64-inside-32_6_1007)"/>
<mask id="path-66-inside-33_6_1007" fill="white">
<path d="M256 397H381V455H256V397Z"/>
</mask>
<path d="M381 397H406V372H381V397ZM256 397V422H381V397V372H256V397ZM381 397H356V455H381H406V397H381Z" fill="#2A3668" mask="url(#path-66-inside-33_6_1007)"/>
<mask id="path-68-inside-34_6_1007" fill="white">
<path d="M60 321H185V379H60V321Z"/>
</mask>
<path d="M185 321H210V296H185V321ZM60 321V346H185V321V296H60V321ZM185 321H160V379H185H210V321H185Z" fill="#2A3668" mask="url(#path-68-inside-34_6_1007)"/>
<mask id="path-70-inside-35_6_1007" fill="white">
<path d="M202 321H327V379H202V321Z"/>
</mask>
<path d="M327 321H352V296H327V321ZM202 321V346H327V321V296H202V321ZM327 321H302V379H327H352V321H327Z" fill="#2A3668" mask="url(#path-70-inside-35_6_1007)"/>
<mask id="path-72-inside-36_6_1007" fill="white">
<path d="M344 321H387V379H344V321Z"/>
</mask>
<path d="M344 321V346H387V321V296H344V321Z" fill="#2A3668" mask="url(#path-72-inside-36_6_1007)"/>
<mask id="path-74-inside-37_6_1007" fill="white">
<path d="M45 245H97V303H45V245Z"/>
</mask>
<path d="M97 245H122V220H97V245ZM45 245V270H97V245V220H45V245ZM97 245H72V303H97H122V245H97Z" fill="#2A3668" mask="url(#path-74-inside-37_6_1007)"/>
<mask id="path-76-inside-38_6_1007" fill="white">
<path d="M114 245H239V303H114V245Z"/>
</mask>
<path d="M239 245H264V220H239V245ZM114 245V270H239V245V220H114V245ZM239 245H214V303H239H264V245H239Z" fill="#2A3668" mask="url(#path-76-inside-38_6_1007)"/>
<mask id="path-78-inside-39_6_1007" fill="white">
<path d="M256 245H381V303H256V245Z"/>
</mask>
<path d="M381 245H406V220H381V245ZM256 245V270H381V245V220H256V245ZM381 245H356V303H381H406V245H381Z" fill="#2A3668" mask="url(#path-78-inside-39_6_1007)"/>
<mask id="path-80-inside-40_6_1007" fill="white">
<path d="M60 169H185V227H60V169Z"/>
</mask>
<path d="M185 169H210V144H185V169ZM60 169V194H185V169V144H60V169ZM185 169H160V227H185H210V169H185Z" fill="#2A3668" mask="url(#path-80-inside-40_6_1007)"/>
<mask id="path-82-inside-41_6_1007" fill="white">
<path d="M202 169H327V227H202V169Z"/>
</mask>
<path d="M327 169H352V144H327V169ZM202 169V194H327V169V144H202V169ZM327 169H302V227H327H352V169H327Z" fill="#2A3668" mask="url(#path-82-inside-41_6_1007)"/>
<mask id="path-84-inside-42_6_1007" fill="white">
<path d="M344 169H387V227H344V169Z"/>
</mask>
<path d="M344 169V194H387V169V144H344V169Z" fill="#2A3668" mask="url(#path-84-inside-42_6_1007)"/>
<mask id="path-86-inside-43_6_1007" fill="white">
<path d="M45 93H97V151H45V93Z"/>
</mask>
<path d="M97 93H122V68H97V93ZM45 93V118H97V93V68H45V93ZM97 93H72V151H97H122V93H97Z" fill="#2A3668" mask="url(#path-86-inside-43_6_1007)"/>
<mask id="path-88-inside-44_6_1007" fill="white">
<path d="M114 93H239V151H114V93Z"/>
</mask>
<path d="M239 93H264V68H239V93ZM114 93V118H239V93V68H114V93ZM239 93H214V151H239H264V93H239Z" fill="#2A3668" mask="url(#path-88-inside-44_6_1007)"/>
<mask id="path-90-inside-45_6_1007" fill="white">
<path d="M256 93H381V151H256V93Z"/>
</mask>
<path d="M381 93H406V68H381V93ZM256 93V118H381V93V68H256V93ZM381 93H356V151H381H406V93H381Z" fill="#2A3668" mask="url(#path-90-inside-45_6_1007)"/>
<mask id="path-92-inside-46_6_1007" fill="white">
<path d="M60 45H185V75H60V45Z"/>
</mask>
<path d="M185 45H160V75H185H210V45H185Z" fill="#2A3668" mask="url(#path-92-inside-46_6_1007)"/>
<mask id="path-94-inside-47_6_1007" fill="white">
<path d="M202 45H327V75H202V45Z"/>
</mask>
<path d="M327 45H302V75H327H352V45H327Z" fill="#2A3668" mask="url(#path-94-inside-47_6_1007)"/>
<path d="M216 1038.5C251.622 1038.5 280.5 1067.38 280.5 1103V1274.5H151.5V1103C151.5 1067.38 180.378 1038.5 216 1038.5Z" fill="#2A396D" stroke="#412034" stroke-width="45"/>
<circle cx="216" cy="277" r="135" fill="#ECB980" stroke="#412034" stroke-width="30"/>
<rect x="206" y="167" width="20" height="30" fill="#412034"/>
<rect x="206" y="357" width="20" height="30" fill="#412034"/>
<rect x="326" y="267" width="20" height="30" transform="rotate(90 326 267)" fill="#412034"/>
<rect x="136" y="267" width="20" height="30" transform="rotate(90 136 267)" fill="#412034"/>
<circle cx="215.5" cy="276.5" r="10.5" fill="#412034"/>
<path d="M172 301.66C169.239 296.877 170.877 290.761 175.66 288L210.301 268L220.301 285.321L185.66 305.321C180.877 308.082 174.761 306.443 172 301.66V301.66Z" fill="#412034"/>
<path d="M216 209C221.523 209 226 213.477 226 219V277H206V219C206 213.477 210.477 209 216 209V209Z" fill="#412034"/>
</svg>
