<svg width="432" height="432" viewBox="0 0 432 432" fill="none" xmlns="http://www.w3.org/2000/svg">
<line x1="1.96701e-06" y1="22.5" x2="432" y2="22.5" stroke="#412034" stroke-width="45"/>
<line x1="409.5" y1="-9.83506e-07" x2="409.5" y2="432" stroke="#412034" stroke-width="45"/>
<line x1="22.5" y1="-9.83506e-07" x2="22.5" y2="432" stroke="#412034" stroke-width="45"/>
<line x1="1.96701e-06" y1="409.5" x2="141" y2="409.5" stroke="#412034" stroke-width="45"/>
<line x1="291" y1="409.5" x2="432" y2="409.5" stroke="#412034" stroke-width="45"/>
<rect x="45" y="45" width="140" height="342" fill="#ECB980"/>
<rect x="247" y="45" width="140" height="342" fill="#ECB980"/>
<rect x="163" y="45" width="103" height="171" fill="#ECB980"/>
<mask id="path-9-inside-1_0_1" fill="white">
<path d="M141 272C141 230.579 174.579 197 216 197V197C257.421 197 291 230.579 291 272V432H141V272Z"/>
</mask>
<path d="M96 272C96 205.726 149.726 152 216 152C282.274 152 336 205.726 336 272H246C246 255.431 232.569 242 216 242C199.431 242 186 255.431 186 272H96ZM291 432H141H291ZM96 432V272C96 205.726 149.726 152 216 152V242C199.431 242 186 255.431 186 272V432H96ZM216 152C282.274 152 336 205.726 336 272V432H246V272C246 255.431 232.569 242 216 242V152Z" fill="#412034" mask="url(#path-9-inside-1_0_1)"/>
</svg>
