<?xml version="1.0" encoding="UTF-8"?>
<!-- Created with Inkscape (http://www.inkscape.org/) -->
<svg width="210mm" height="297mm" version="1.1" viewBox="0 0 210 297" xml:space="preserve" xmlns="http://www.w3.org/2000/svg"><g fill="#fff"><path d="m104.81 232.02c-24.148-1.4535-41.287-9.3087-52.152-23.902-11.421-15.34-14.894-35.24-9.629-55.166 4.8139-18.218 15.15-34.636 33.063-52.521 15.173-15.149 27.642-24.433 37.185-27.686 6.7727-2.309 13.648-1.1704 17.733 2.9364 2.6738 2.6883 3.9865 6.3058 4.7536 13.099 0.78068 6.9137 1.6668 10.243 3.7213 13.98 1.5111 2.7492 3.0067 4.5117 9.3494 11.018 7.0437 7.2258 10.576 11.201 13.84 15.578 8.7502 11.731 13.188 21.46 15.47 33.914 0.75512 4.1214 0.68903 15.216-0.11689 19.62-3.6678 20.045-15.552 35.287-33.397 42.833-10.85 4.5884-26.659 7.0876-39.82 6.2954zm9.6573-5.249c0-0.0728-0.0595-0.13229-0.1323-0.13229s-0.13229 0.0595-0.13229 0.13229c0 0.0728 0.0595 0.13229 0.13229 0.13229 0.0728 0 0.1323-0.0595 0.1323-0.13229zm-12.171-0.26458c0-0.0728-0.0595-0.13229-0.13229-0.13229-0.0728 0-0.13229 0.0595-0.13229 0.13229 0 0.0728 0.0595 0.13229 0.13229 0.13229 0.0728 0 0.13229-0.0595 0.13229-0.13229zm15.875 0c0-0.0728-0.0595-0.13229-0.13229-0.13229-0.0728 0-0.13229 0.0595-0.13229 0.13229 0 0.0728 0.0595 0.13229 0.13229 0.13229 0.0728 0 0.13229-0.0595 0.13229-0.13229zm-19.315-0.26458c0-0.0728-0.05953-0.1323-0.13229-0.1323-0.07276 0-0.13229 0.0595-0.13229 0.1323s0.05953 0.13229 0.13229 0.13229c0.07276 0 0.13229-0.0595 0.13229-0.13229zm20.373-0.41967c6.3535-0.53605 14.952-2.3786 20.241-4.3373 18.309-6.781 29.206-19.986 32.864-39.825 0.73936-4.0101 0.67268-14.709-0.11726-18.816-2.9341-15.255-10.196-27.168-27.322-44.82-7.4803-7.7098-8.9129-9.4948-11.039-13.755-2.0042-4.015-2.8762-7.3538-3.7739-14.449-0.81293-6.4253-1.451-8.2485-3.6197-10.343-2.3674-2.2862-6.4347-2.8845-10.671-1.5696-8.6876 2.6964-23.233 13.68-38.279 28.906-7.0291 7.113-11.384 12.325-16.115 19.283-10.36 15.24-15.008 29.039-15.017 44.582-0.01074 19.166 8.0902 35.481 22.379 45.073 12.134 8.1445 30.31 11.771 50.471 10.07zm1.5875 0.41968c0-0.0728-0.0595-0.1323-0.13229-0.1323-0.0728 0-0.13229 0.0595-0.13229 0.1323s0.0595 0.13229 0.13229 0.13229c0.0728 0 0.13229-0.0595 0.13229-0.13229zm-24.342-0.26459c0-0.0728-0.05953-0.13229-0.13229-0.13229-0.07276 0-0.13229 0.0595-0.13229 0.13229 0 0.0728 0.05953 0.13229 0.13229 0.13229 0.07276 0 0.13229-0.0595 0.13229-0.13229zm29.898-0.52916c0-0.0728-0.0595-0.1323-0.13229-0.1323-0.0728 0-0.13229 0.0595-0.13229 0.1323s0.0595 0.13229 0.13229 0.13229c0.0728 0 0.13229-0.0595 0.13229-0.13229zm-34.484-0.30868c-0.09701-0.097-0.25576-0.097-0.35278 0-0.09701 0.097-0.01764 0.17638 0.17639 0.17638 0.19403 0 0.2734-0.0794 0.17639-0.17638zm37.13-0.22049c0-0.0728-0.0595-0.13229-0.13229-0.13229-0.0728 0-0.1323 0.0595-0.1323 0.13229 0 0.0728 0.0595 0.13229 0.1323 0.13229s0.13229-0.0595 0.13229-0.13229zm-43.127-1.0583c0-0.0728-0.05953-0.1323-0.13229-0.1323-0.07276 0-0.13229 0.0595-0.13229 0.1323s0.05953 0.13229 0.13229 0.13229c0.07276 0 0.13229-0.0595 0.13229-0.13229zm-0.79375-0.26459c0-0.0728-0.05953-0.13229-0.13229-0.13229-0.07276 0-0.13229 0.0595-0.13229 0.13229 0 0.0728 0.05953 0.13229 0.13229 0.13229 0.07276 0 0.13229-0.0595 0.13229-0.13229zm50.535-0.26459c0-0.0728-0.0595-0.13229-0.13229-0.13229-0.0728 0-0.13229 0.0595-0.13229 0.13229 0 0.0728 0.0595 0.13229 0.13229 0.13229 0.0728 0 0.13229-0.0595 0.13229-0.13229zm0.79375-0.26458c0-0.0728-0.0595-0.1323-0.13229-0.1323-0.0728 0-0.13229 0.0595-0.13229 0.1323s0.0595 0.13229 0.13229 0.13229c0.0728 0 0.13229-0.0595 0.13229-0.13229zm28.84-20.902c0-0.0728-0.0595-0.13229-0.13229-0.13229-0.0728 0-0.13229 0.0595-0.13229 0.13229 0 0.0728 0.0595 0.1323 0.13229 0.1323 0.0728 0 0.13229-0.0595 0.13229-0.1323zm6.8792-16.404c0-0.0728-0.0595-0.13229-0.13229-0.13229-0.0728 0-0.13229 0.0595-0.13229 0.13229 0 0.0728 0.0595 0.13229 0.13229 0.13229 0.0728 0 0.13229-0.0595 0.13229-0.13229zm0.26458-1.0583c0-0.0728-0.0595-0.13229-0.13229-0.13229-0.0728 0-0.13229 0.0595-0.13229 0.13229 0 0.0728 0.0595 0.1323 0.13229 0.1323 0.0728 0 0.13229-0.0595 0.13229-0.1323zm0.79375-4.4979c0-0.0728-0.0595-0.13229-0.13229-0.13229-0.0728 0-0.13229 0.0595-0.13229 0.13229 0 0.0728 0.0595 0.13229 0.13229 0.13229 0.0728 0 0.13229-0.0595 0.13229-0.13229zm-126.74-0.52917c0-0.0728-0.05953-0.13229-0.13229-0.13229-0.07276 0-0.13229 0.0595-0.13229 0.13229 0 0.0728 0.05953 0.13229 0.13229 0.13229 0.07276 0 0.13229-0.0595 0.13229-0.13229zm-0.35394-2.8443c-0.0734-0.1819-0.13345-0.0331-0.13345 0.33073 0 0.3638 0.06005 0.51263 0.13345 0.33073 0.0734-0.1819 0.0734-0.47956 0-0.66146zm127.54-3.4365c-0.0633-0.32912-0.11746-0.12214-0.1204 0.45994-3e-3 0.58208 0.0488 0.85136 0.11507 0.5984 0.0662-0.25297 0.0686-0.72922 5e-3 -1.0583zm-127.72-0.0692c0-0.0728-0.05953-0.13229-0.13229-0.13229-0.07276 0-0.13229 0.0595-0.13229 0.13229 0 0.0728 0.05953 0.13229 0.13229 0.13229 0.07276 0 0.13229-0.0595 0.13229-0.13229zm127.7-1.5214c-0.0734-0.1819-0.13345-0.0331-0.13345 0.33073 0 0.3638 0.0601 0.51263 0.13345 0.33073 0.0734-0.1819 0.0734-0.47956 0-0.66146zm0.0894-0.59531c0-0.0728-0.0595-0.1323-0.13229-0.1323-0.0728 0-0.13229 0.0595-0.13229 0.1323s0.0595 0.13229 0.13229 0.13229c0.0728 0 0.13229-0.0595 0.13229-0.13229zm-127.62-7.4524c-0.09701-0.097-0.17639-0.0176-0.17639 0.17638 0 0.19403 0.07937 0.27341 0.17639 0.17639 0.09701-0.097 0.09701-0.25576 0-0.35277zm0.26342-2.271c-0.0734-0.1819-0.13345-0.0331-0.13345 0.33073 0 0.3638 0.06005 0.51263 0.13345 0.33073 0.0734-0.1819 0.0734-0.47956 0-0.66146zm2.206-10.12c0-0.0728-0.05953-0.13229-0.13229-0.13229-0.07276 0-0.13229 0.0595-0.13229 0.13229 0 0.0728 0.05953 0.13229 0.13229 0.13229 0.07276 0 0.13229-0.0595 0.13229-0.13229zm1.5875-4.7625c0-0.0728-0.05953-0.13229-0.13229-0.13229-0.07276 0-0.13229 0.0595-0.13229 0.13229 0 0.0728 0.05953 0.13229 0.13229 0.13229 0.07276 0 0.13229-0.0595 0.13229-0.13229zm0.26458-0.79375c0-0.0728-0.05953-0.13229-0.13229-0.13229-0.07276 0-0.13229 0.0595-0.13229 0.13229 0 0.0728 0.05953 0.13229 0.13229 0.13229 0.07276 0 0.13229-0.0595 0.13229-0.13229zm113.77-5.0271c0-0.0728-0.0595-0.13229-0.13229-0.13229-0.0728 0-0.13229 0.0595-0.13229 0.13229 0 0.0728 0.0595 0.1323 0.13229 0.1323 0.0728 0 0.13229-0.0595 0.13229-0.1323zm-103.19-14.817c0-0.0728-0.05953-0.13229-0.13229-0.13229-0.07276 0-0.13229 0.0595-0.13229 0.13229 0 0.0728 0.05953 0.13229 0.13229 0.13229 0.07276 0 0.13229-0.0595 0.13229-0.13229zm70.908-28.84c0-0.07276-0.0595-0.13229-0.13229-0.13229-0.0728 0-0.13229 0.05953-0.13229 0.13229 0 0.07276 0.0595 0.13229 0.13229 0.13229 0.0728 0 0.13229-0.05953 0.13229-0.13229zm-0.26458-1.3229c0-0.07276-0.0595-0.13229-0.13229-0.13229-0.0728 0-0.13229 0.05953-0.13229 0.13229 0 0.07276 0.0595 0.13229 0.13229 0.13229 0.0728 0 0.13229-0.05953 0.13229-0.13229z"/><path transform="scale(.26458)" d="m389.85 859.28c-92.062-5.1754-150.73-42.236-187.6-103.23-22.252-36.815-36.409-84.277-31.824-132.49 2.1768-22.892 8.0034-47.093 15.963-69.108 13.274-36.715 37.829-77.923 69.02-115.85 11.623-14.132 48.495-57.812 68.003-75.514 44.261-40.166 87.623-67.14 113.18-75.308 8.8729-2.8358 17.856-1.807 24.201 0.25259 10.302 3.3441 24.983 14.563 28.752 24.947 1.3296 3.663 5.7773 15.974 7.4927 27.814 4.5002 31.064 6.4905 43.473 16.374 60.116 6.2356 10.501 12.73 18.49 37.987 45.095 44.885 47.281 66.029 71.936 82.492 104.92 7.2608 14.549 7.3429 29.046 11.432 43.622 6.3962 22.799 12.563 26.338 12.534 58.973-0.0258 28.859-1.7775 32.899-4.3819 44.535-12.192 54.476-40.636 94.583-83.223 122.33-9.9028 6.4514-40.989 23.857-50.922 24.721-31.709 2.7569-49.405 12.995-73.001 15.355-10.633 1.0636-46.641-0.63148-56.479-1.1846z" stroke="#fff" stroke-width="1.0925"/></g></svg>
