<svg viewBox="0 0 192 240" xmlns="http://www.w3.org/2000/svg">
  <defs>
    <linearGradient id="grad-continuous" x1="0%" y1="0%" x2="100%" y2="0%">
      <stop offset="0%" stop-color="#00ffcc" stop-opacity="0.4" />
      <stop offset="50%" stop-color="#0099ff" stop-opacity="0.25" />
      <stop offset="100%" stop-color="#001144" stop-opacity="0.05" />
    </linearGradient>
  </defs>


  <!-- Faixa esquerda high-tech com gradiente contínuo -->
  <g stroke="url(#grad-continuous)" fill="none" stroke-width="2">
    <path d="M0 100 C30 90, 40 120, 55 130 C70 140, 80 130, 96 138" />
    <path d="M0 120 C25 115, 35 135, 50 145 C65 155, 80 145, 96 150" />
  </g>
  <g fill="url(#grad-continuous)">
    <circle cx="30" cy="100" r="2.5" />
    <circle cx="40" cy="120" r="2.5" />
    <circle cx="25" cy="115" r="2.5" />
    <circle cx="35" cy="135" r="2.5" />
    <circle cx="70" cy="140" r="2.5" />
    <circle cx="80" cy="130" r="2.5" />
    <circle cx="65" cy="155" r="2.5" />
    <circle cx="80" cy="145" r="2.5" />
  </g>

  <!-- Faixa direita high-tech com mesmo gradiente contínuo -->
  <g stroke="url(#grad-continuous)" fill="none" stroke-width="2">
    <path d="M192 110 C160 100, 150 130, 138 140 C125 150, 110 140, 96 138" />
    <path d="M192 130 C165 120, 152 145, 140 155 C125 165, 110 152, 96 150" />
  </g>
  <g fill="url(#grad-continuous)">
    <circle cx="160" cy="100" r="2.5" />
    <circle cx="150" cy="130" r="2.5" />
    <circle cx="165" cy="120" r="2.5" />
    <circle cx="152" cy="145" r="2.5" />
    <circle cx="125" cy="150" r="2.5" />
    <circle cx="110" cy="140" r="2.5" />
    <circle cx="125" cy="165" r="2.5" />
    <circle cx="110" cy="152" r="2.5" />
  </g>
</svg>