<svg viewBox="0 0 200 200" xmlns="http://www.w3.org/2000/svg" >
  <defs>
    <filter id="glow" x="-50%" y="-50%" width="200%" height="200%" >
      <feDropShadow dx="0" dy="0" stdDeviation="2" flood-color="#00ffe0" flood-opacity="0.9" />
      <feDropShadow dx="0" dy="0" stdDeviation="4" flood-color="#00ffe0" flood-opacity="0.6" />
      <feDropShadow dx="0" dy="0" stdDeviation="6" flood-color="#00ffe0" flood-opacity="0.3" />
    </filter>
  </defs>

  <g stroke="#00ffe0" stroke-width="2" fill="none" filter="url(#glow)" stroke-linejoin="round" >
    <path d="M30 30 L35 40 L28 50 L37 58 L32 67 L40 75" />
    <path d="M28 50 L23 53" stroke-width="1" />
    <path d="M37 58 L42 62" stroke-width="1" />
    <path d="M32 67 L30 72" stroke-width="1" />

    <path d="M80 20 L82 30 L78 40 L84 50 L81 60 L86 68" />
    <path d="M78 40 L73 43" stroke-width="1" />
    <path d="M84 50 L88 53" stroke-width="1" />
    <path d="M81 60 L79 65" stroke-width="1" />

    <path d="M130 90 L135 95 L130 100 L136 105 L131 110 L137 115" />
    <path d="M130 100 L125 102" stroke-width="1" />
    <path d="M136 105 L140 108" stroke-width="1" />
    <path d="M131 110 L129 115" stroke-width="1" />

    <path d="M170 150 L165 160 L172 170 L163 178 L168 185 L160 190" />
    <path d="M172 170 L177 173" stroke-width="1" />
    <path d="M163 178 L158 182" stroke-width="1" />
    <path d="M168 185 L170 190" stroke-width="1" />
  </g>
</svg>